<svg width="20" height="20" viewBox="0 0 20 20" fill="none" xmlns="http://www.w3.org/2000/svg">
<path fill-rule="evenodd" clip-rule="evenodd" d="M2.91666 8.59797C2.91666 4.76475 6.1199 1.6665 9.99454 1.6665C13.8801 1.6665 17.0833 4.76475 17.0833 8.59797C17.0833 10.5296 16.3808 12.3229 15.2246 13.8428C13.949 15.5194 12.3768 16.9802 10.6071 18.1269C10.2021 18.3919 9.83656 18.4119 9.39204 18.1269C7.61228 16.9802 6.04007 15.5194 4.77541 13.8428C3.61832 12.3229 2.91666 10.5296 2.91666 8.59797ZM7.66185 8.8138C7.66185 10.0979 8.70971 11.1079 9.99454 11.1079C11.2802 11.1079 12.3381 10.0979 12.3381 8.8138C12.3381 7.53967 11.2802 6.48053 9.99454 6.48053C8.70971 6.48053 7.66185 7.53967 7.66185 8.8138Z" fill="black"/>
</svg>
