<svg width="20" height="20" viewBox="0 0 20 20" fill="none" xmlns="http://www.w3.org/2000/svg">
<path fill-rule="evenodd" clip-rule="evenodd" d="M13.4653 6.86087C13.4653 8.81894 11.9043 10.389 9.95753 10.389C8.01077 10.389 6.44979 8.81894 6.44979 6.86087C6.44979 4.90205 8.01077 3.3335 9.95753 3.3335C11.9043 3.3335 13.4653 4.90205 13.4653 6.86087ZM9.95753 16.6668C7.09821 16.6668 4.65674 16.2135 4.65674 14.4003C4.65674 12.5863 7.08254 12.1165 9.95753 12.1165C12.8168 12.1165 15.2583 12.5698 15.2583 14.3838C15.2583 16.197 12.8325 16.6668 9.95753 16.6668ZM14.9642 6.92452C14.9642 7.92269 14.6665 8.85256 14.1442 9.62559C14.0905 9.70514 14.1382 9.81246 14.233 9.82897C14.3636 9.85149 14.4986 9.86425 14.6359 9.868C16.0052 9.90402 17.2341 9.01768 17.5736 7.68328C18.0765 5.70119 16.5998 3.92174 14.7195 3.92174C14.5151 3.92174 14.3196 3.94351 14.1293 3.98253C14.1032 3.98854 14.0756 4.00055 14.0606 4.02381C14.0427 4.05233 14.0562 4.09061 14.0741 4.11537C14.6389 4.91166 14.9642 5.88281 14.9642 6.92452ZM17.2319 11.2606C18.1519 11.4415 18.757 11.8108 19.0077 12.3474C19.2196 12.7879 19.2196 13.299 19.0077 13.7388C18.6242 14.5711 17.3878 14.8383 16.9073 14.9073C16.808 14.9224 16.7282 14.836 16.7386 14.7362C16.9841 12.4299 15.0314 11.3364 14.5262 11.085C14.5046 11.0738 14.5001 11.0565 14.5024 11.046C14.5039 11.0385 14.5128 11.0265 14.5292 11.0242C15.6224 11.004 16.7976 11.1541 17.2319 11.2606ZM5.36426 9.86792C5.50156 9.86417 5.63587 9.85216 5.76719 9.8289C5.86196 9.81239 5.90971 9.70506 5.85599 9.62551C5.33367 8.85249 5.03595 7.92261 5.03595 6.92444C5.03595 5.88274 5.36128 4.91158 5.92613 4.1153C5.94403 4.09053 5.95672 4.05226 5.93956 4.02374C5.92463 4.00122 5.89628 3.98846 5.87091 3.98246C5.67989 3.94343 5.48439 3.92167 5.27994 3.92167C3.3996 3.92167 1.92293 5.70112 2.42659 7.6832C2.7661 9.0176 3.99504 9.90395 5.36426 9.86792ZM5.49745 11.0455C5.49969 11.0568 5.49521 11.0733 5.47432 11.0853C4.96842 11.3367 3.01569 12.4302 3.26118 14.7358C3.27163 14.8363 3.19254 14.9219 3.0933 14.9076C2.61276 14.8386 1.37636 14.5714 0.992829 13.7391C0.780171 13.2986 0.780171 12.7882 0.992829 12.3477C1.24354 11.8111 1.84794 11.4418 2.76797 11.2602C3.20298 11.1544 4.37745 11.0043 5.47134 11.0245C5.48775 11.0268 5.49596 11.0388 5.49745 11.0455Z" fill="black"/>
</svg>
