<svg width="60" height="60" viewBox="0 0 60 60" fill="none" xmlns="http://www.w3.org/2000/svg">
<rect width="60" height="60" rx="30" fill="#FFF3F0"/>
<path d="M29.0815 14.1327C29.4286 13.3268 30.5714 13.3268 30.9185 14.1327L34.632 22.756C34.7768 23.0922 35.0936 23.3224 35.4581 23.3562L44.8068 24.2232C45.6806 24.3043 46.0337 25.3911 45.3745 25.9703L38.3208 32.1668C38.0459 32.4083 37.9248 32.7808 38.0053 33.1379L40.0696 42.297C40.2625 43.1531 39.338 43.8248 38.5835 43.3767L30.5106 38.5832C30.1958 38.3963 29.8042 38.3963 29.4894 38.5832L21.4165 43.3767C20.662 43.8248 19.7375 43.1531 19.9304 42.297L21.9947 33.1379C22.0752 32.7808 21.9541 32.4083 21.6792 32.1668L14.6255 25.9702C13.9663 25.3911 14.3194 24.3043 15.1932 24.2232L24.5419 23.3562C24.9064 23.3224 25.2232 23.0922 25.368 22.756L29.0815 14.1327Z" fill="#FF7E84"/>
</svg>
